<mxfile host="app.diagrams.net" modified="2023-05-29T01:40:05.990Z" agent="Mozilla/5.0 (Macintosh; Intel Mac OS X 10_15_7) AppleWebKit/537.36 (KHTML, like Gecko) Chrome/112.0.0.0 Safari/537.36" version="21.3.5" etag="lQViYXFhXVu2_v1x0jSL" type="github">
  <diagram name="第 1 页" id="V8Uw1zA28wx6fQe0YWNh">
    <mxGraphModel>
      <root>
        <mxCell id="0" />
        <mxCell id="1" parent="0" />
      </root>
    </mxGraphModel>
  </diagram>
</mxfile>
